<svg xmlns="http://www.w3.org/2000/svg" width="140" height="58" fill="none" viewBox="0 0 140 58"><g clip-path="url(#clip0_10707_2)"><path fill="#E4E5EA" fill-rule="evenodd" d="M45.0018 5L51.2891 17.5571L50.4983 19.1196L43.1697 5H45.0018ZM65.3871 5L58.1163 19.1196L50.4598 5H52.2341L58.1163 16.051C58.412 15.4861 58.7463 14.8367 59.1191 14.1025C59.492 13.3682 59.8681 12.6121 60.2474 11.8339C60.6267 11.0557 61.0028 10.287 61.3756 9.52769C61.7484 8.76837 62.086 8.07494 62.3881 7.4474C62.6903 6.81986 62.9442 6.28646 63.1499 5.84718C63.3556 5.4079 63.4906 5.12551 63.5549 5H65.3871ZM79.2619 6.37431V5H69.9275V19.1384H79.2619V17.7642H71.3547V12.7752H77.9505V11.4009H71.3547V6.37431H79.2619ZM83.4167 19.1384V5H84.8438V17.7642H92.7511V19.1384H83.4167ZM96.9058 5V19.1384H103.829C103.932 19.1384 104.161 19.1039 104.514 19.0349C104.868 18.9658 105.25 18.8121 105.662 18.5737C105.855 18.4607 106.057 18.3132 106.269 18.1313C106.481 17.9492 106.671 17.7265 106.838 17.4629C107.005 17.1993 107.143 16.8887 107.253 16.5311C107.362 16.1733 107.417 15.756 107.417 15.2791C107.417 14.7394 107.346 14.2687 107.205 13.8671C107.063 13.4655 106.883 13.1204 106.665 12.8317C106.446 12.543 106.198 12.3108 105.922 12.1351C105.646 11.9594 105.366 11.8213 105.083 11.7209C105.366 11.4448 105.61 11.0652 105.816 10.582C106.022 10.0988 106.124 9.51828 106.124 8.84053C106.124 8.3385 106.07 7.90551 105.961 7.54153C105.851 7.17756 105.713 6.86379 105.546 6.60023C105.379 6.33666 105.192 6.11702 104.987 5.94131C104.781 5.7656 104.582 5.62126 104.389 5.50831C104.17 5.3828 103.961 5.28553 103.762 5.2165C103.563 5.14747 103.383 5.09727 103.222 5.06589C103.061 5.03451 102.929 5.01569 102.827 5.00941C102.724 5.00314 102.666 5 102.653 5H96.9058ZM103.791 17.7642C103.842 17.7642 103.984 17.7422 104.215 17.6982C104.447 17.6543 104.694 17.5508 104.958 17.3877C105.221 17.2244 105.456 16.9766 105.662 16.6439C105.867 16.3114 105.97 15.8564 105.97 15.2791C105.97 14.7017 105.867 14.2468 105.662 13.9142C105.456 13.5816 105.221 13.3306 104.958 13.1611C104.694 12.9917 104.443 12.885 104.206 12.8411C103.968 12.7972 103.823 12.7752 103.772 12.7752H98.333V17.7642H103.791ZM103.068 11.3256C102.843 11.3758 102.704 11.4009 102.653 11.4009H98.333V6.37431H102.653C102.679 6.37431 102.801 6.39313 103.019 6.43078C103.238 6.46844 103.476 6.56571 103.733 6.72259C103.99 6.87948 104.225 7.12422 104.437 7.45681C104.649 7.78941 104.755 8.25065 104.755 8.84053C104.755 9.41788 104.656 9.87597 104.456 10.2148C104.257 10.5537 104.032 10.811 103.781 10.9867C103.531 11.1624 103.293 11.2754 103.068 11.3256ZM121.639 5V6.37431H113.731V11.4009H120.327V12.7752H113.731V17.7642H121.639V19.1384H112.304V5H121.639ZM132.331 13.1141L137.153 19.1384H139.043L133.431 12.0598L139.043 5H137.153L132.331 11.0244L127.78 5H125.639L131.251 12.0598L125.639 19.1384H127.78L132.331 13.1141Z" clip-rule="evenodd"/></g><g clip-path="url(#clip1_10707_2)"><path fill="#E4E5EA" fill-rule="evenodd" d="M24.5946 0H0V12.7841H1.3208V1.28886H23.2738V5.52746H21.0842V5.53671H21.0684C21.0096 5.65146 20.8861 5.90965 20.698 6.31127C20.5098 6.7129 20.2776 7.20058 20.0012 7.77434C19.7249 8.34809 19.4162 8.98207 19.0752 9.67634C18.7342 10.3706 18.3901 11.0734 18.0433 11.7848C17.6964 12.4963 17.3524 13.1876 17.0114 13.859C16.6704 14.5302 16.3647 15.1241 16.0941 15.6404L10.7143 5.53671H9.09151L16.0941 18.446L22.1009 6.7853H24.5927V6.77176H24.5946V0ZM0 17.1961H0.00609518V17.1819H8.47042L2.42401 5.53671H4.0997L9.84995 17.0175L9.1268 18.446L9.1157 18.4247V18.4398H1.3208V22.7111H23.2738V11.1838H24.5946V24H0V17.1961ZM33.6949 24V0H35.0517V24H33.6949Z" clip-rule="evenodd"/></g><path fill="#E4E5EA" d="M4.93 44L2.69 41.39L3.11 41.15L5.53 44H4.93ZM1.08 44V38.78H1.58V44H1.08ZM1.42 41.58V41.15H3.06V41.58H1.42ZM3.14 41.44L2.68 41.36L4.82 38.78H5.37L3.14 41.44ZM9.39359 44.04C8.93359 44.04 8.51693 43.9333 8.14359 43.72C7.77693 43.5067 7.48359 43.2033 7.26359 42.81C7.05026 42.41 6.94359 41.9367 6.94359 41.39C6.94359 40.8433 7.05026 40.3733 7.26359 39.98C7.48359 39.58 7.77693 39.2733 8.14359 39.06C8.51693 38.8467 8.93359 38.74 9.39359 38.74C9.88693 38.74 10.3269 38.8533 10.7136 39.08C11.1069 39.3 11.4136 39.61 11.6336 40.01C11.8603 40.41 11.9736 40.87 11.9736 41.39C11.9736 41.91 11.8603 42.37 11.6336 42.77C11.4136 43.17 11.1069 43.4833 10.7136 43.71C10.3269 43.93 9.88693 44.04 9.39359 44.04ZM6.77359 45.94V38.78H7.25359V40.49L7.17359 41.4L7.27359 42.31V45.94H6.77359ZM9.36359 43.59C9.76359 43.59 10.1236 43.5 10.4436 43.32C10.7636 43.1333 11.0136 42.8733 11.1936 42.54C11.3803 42.2067 11.4736 41.8233 11.4736 41.39C11.4736 40.95 11.3803 40.5667 11.1936 40.24C11.0136 39.9067 10.7636 39.65 10.4436 39.47C10.1236 39.2833 9.76359 39.19 9.36359 39.19C8.96359 39.19 8.60359 39.2833 8.28359 39.47C7.97026 39.65 7.72026 39.9067 7.53359 40.24C7.35359 40.5667 7.26359 40.95 7.26359 41.39C7.26359 41.8233 7.35359 42.2067 7.53359 42.54C7.72026 42.8733 7.97026 43.1333 8.28359 43.32C8.60359 43.5 8.96359 43.59 9.36359 43.59ZM13.393 45.98C13.153 45.98 12.9264 45.94 12.713 45.86C12.5064 45.78 12.3297 45.6633 12.183 45.51L12.433 45.13C12.5664 45.27 12.7097 45.3733 12.863 45.44C13.023 45.5067 13.203 45.54 13.403 45.54C13.643 45.54 13.853 45.4733 14.033 45.34C14.2197 45.2067 14.393 44.9633 14.553 44.61L14.913 43.81L14.983 43.72L17.193 38.78H17.703L15.023 44.71C14.883 45.03 14.7297 45.28 14.563 45.46C14.403 45.6467 14.2264 45.78 14.033 45.86C13.8397 45.94 13.6264 45.98 13.393 45.98ZM14.903 44.13L12.483 38.78H13.013L15.213 43.69L14.903 44.13ZM18.912 44V38.78H23.472V44H22.972V39.08L23.112 39.23H19.272L19.412 39.08V44H18.912ZM25.6308 44V38.78H26.1308V41.16H29.6708V38.78H30.1708V44H29.6708V41.6H26.1308V44H25.6308ZM37.34 44V38.78H37.84V44H37.34ZM34.39 40.68C35.0433 40.6867 35.5367 40.83 35.87 41.11C36.21 41.3833 36.38 41.7867 36.38 42.32C36.38 42.8733 36.2 43.2967 35.84 43.59C35.48 43.8833 34.96 44.0267 34.28 44.02L32.33 44V38.78H32.83V40.66L34.39 40.68ZM34.26 43.62C34.7933 43.6267 35.1967 43.52 35.47 43.3C35.7433 43.08 35.88 42.7533 35.88 42.32C35.88 41.9 35.7433 41.5867 35.47 41.38C35.2033 41.1733 34.8 41.0667 34.26 41.06L32.83 41.05V43.6L34.26 43.62ZM39.9863 44V38.78H40.4863V43.23L44.2063 38.78H44.6463V44H44.1463V39.55L40.4263 44H39.9863ZM42.2963 37.98C41.8896 37.98 41.5529 37.8733 41.2863 37.66C41.0263 37.44 40.8896 37.1367 40.8763 36.75H41.2463C41.2596 37.0233 41.3629 37.24 41.5563 37.4C41.7563 37.56 42.0029 37.64 42.2963 37.64C42.5896 37.64 42.8329 37.56 43.0263 37.4C43.2263 37.24 43.3296 37.0233 43.3363 36.75H43.7163C43.7096 37.1367 43.5729 37.44 43.3063 37.66C43.0463 37.8733 42.7096 37.98 42.2963 37.98ZM49.371 44V38.78H49.871V43.23L53.591 38.78H54.031V44H53.531V39.55L49.811 44H49.371ZM56.1874 44V38.78H56.6874V41.16H60.2274V38.78H60.7274V44H60.2274V41.6H56.6874V44H56.1874ZM63.8366 44V39.08L63.9766 39.23H61.7966V38.78H66.3766V39.23H64.1966L64.3366 39.08V44H63.8366ZM69.363 44.04C68.8364 44.04 68.3697 43.9267 67.963 43.7C67.563 43.4733 67.2464 43.16 67.013 42.76C66.7864 42.36 66.673 41.9033 66.673 41.39C66.673 40.87 66.7797 40.4133 66.993 40.02C67.213 39.62 67.513 39.3067 67.893 39.08C68.273 38.8533 68.6997 38.74 69.173 38.74C69.6464 38.74 70.0697 38.85 70.443 39.07C70.823 39.29 71.1197 39.6 71.333 40C71.553 40.3933 71.663 40.85 71.663 41.37C71.663 41.39 71.6597 41.4133 71.653 41.44C71.653 41.46 71.653 41.4833 71.653 41.51H67.043V41.12H71.383L71.183 41.31C71.1897 40.9033 71.103 40.54 70.923 40.22C70.7497 39.8933 70.513 39.64 70.213 39.46C69.913 39.2733 69.5664 39.18 69.173 39.18C68.7864 39.18 68.4397 39.2733 68.133 39.46C67.833 39.64 67.5964 39.8933 67.423 40.22C67.2497 40.54 67.163 40.9067 67.163 41.32V41.41C67.163 41.8367 67.2564 42.2167 67.443 42.55C67.6364 42.8767 67.8997 43.1333 68.233 43.32C68.5664 43.5 68.9464 43.59 69.373 43.59C69.7064 43.59 70.0164 43.53 70.303 43.41C70.5964 43.29 70.843 43.1067 71.043 42.86L71.333 43.19C71.1064 43.47 70.8197 43.6833 70.473 43.83C70.133 43.97 69.763 44.04 69.363 44.04ZM73.2968 44V38.78H76.8668V39.23H73.6568L73.7968 39.09V44H73.2968ZM80.5655 44.04C80.1055 44.04 79.6888 43.9333 79.3155 43.72C78.9488 43.5067 78.6555 43.2033 78.4355 42.81C78.2221 42.41 78.1155 41.9367 78.1155 41.39C78.1155 40.8433 78.2221 40.3733 78.4355 39.98C78.6555 39.58 78.9488 39.2733 79.3155 39.06C79.6888 38.8467 80.1055 38.74 80.5655 38.74C81.0588 38.74 81.4988 38.8533 81.8855 39.08C82.2788 39.3 82.5855 39.61 82.8055 40.01C83.0321 40.41 83.1455 40.87 83.1455 41.39C83.1455 41.91 83.0321 42.37 82.8055 42.77C82.5855 43.17 82.2788 43.4833 81.8855 43.71C81.4988 43.93 81.0588 44.04 80.5655 44.04ZM77.9455 45.94V38.78H78.4255V40.49L78.3455 41.4L78.4455 42.31V45.94H77.9455ZM80.5355 43.59C80.9355 43.59 81.2955 43.5 81.6155 43.32C81.9355 43.1333 82.1855 42.8733 82.3655 42.54C82.5521 42.2067 82.6455 41.8233 82.6455 41.39C82.6455 40.95 82.5521 40.5667 82.3655 40.24C82.1855 39.9067 81.9355 39.65 81.6155 39.47C81.2955 39.2833 80.9355 39.19 80.5355 39.19C80.1355 39.19 79.7755 39.2833 79.4555 39.47C79.1421 39.65 78.8921 39.9067 78.7055 40.24C78.5255 40.5667 78.4355 40.95 78.4355 41.39C78.4355 41.8233 78.5255 42.2067 78.7055 42.54C78.8921 42.8733 79.1421 43.1333 79.4555 43.32C79.7755 43.5 80.1355 43.59 80.5355 43.59ZM88.0119 44V42.81L87.9919 42.63V40.67C87.9919 40.1833 87.8585 39.8133 87.5919 39.56C87.3319 39.3067 86.9485 39.18 86.4419 39.18C86.0819 39.18 85.7452 39.2433 85.4319 39.37C85.1252 39.49 84.8619 39.6467 84.6419 39.84L84.3919 39.48C84.6519 39.2467 84.9652 39.0667 85.3319 38.94C85.6985 38.8067 86.0819 38.74 86.4819 38.74C87.1285 38.74 87.6252 38.9033 87.9719 39.23C88.3185 39.5567 88.4919 40.0433 88.4919 40.69V44H88.0119ZM86.1319 44.04C85.7452 44.04 85.4085 43.98 85.1219 43.86C84.8419 43.7333 84.6252 43.5567 84.4719 43.33C84.3252 43.1033 84.2519 42.8433 84.2519 42.55C84.2519 42.2833 84.3119 42.0433 84.4319 41.83C84.5585 41.61 84.7652 41.4333 85.0519 41.3C85.3385 41.16 85.7219 41.09 86.2019 41.09H88.1219V41.48H86.2119C85.6719 41.48 85.2919 41.58 85.0719 41.78C84.8585 41.98 84.7519 42.23 84.7519 42.53C84.7519 42.8633 84.8785 43.13 85.1319 43.33C85.3852 43.53 85.7419 43.63 86.2019 43.63C86.6419 43.63 87.0119 43.53 87.3119 43.33C87.6185 43.13 87.8452 42.84 87.9919 42.46L88.1319 42.8C87.9919 43.18 87.7519 43.4833 87.4119 43.71C87.0785 43.93 86.6519 44.04 86.1319 44.04ZM91.4734 44V39.08L91.6134 39.23H89.4334V38.78H94.0134V39.23H91.8334L91.9734 39.08V44H91.4734ZM96.9198 44.04C96.4198 44.04 95.9731 43.9267 95.5798 43.7C95.1931 43.4733 94.8831 43.16 94.6498 42.76C94.4231 42.36 94.3098 41.9033 94.3098 41.39C94.3098 40.87 94.4231 40.4133 94.6498 40.02C94.8831 39.62 95.1931 39.3067 95.5798 39.08C95.9731 38.8533 96.4198 38.74 96.9198 38.74C97.4198 38.74 97.8664 38.8533 98.2598 39.08C98.6531 39.3067 98.9631 39.62 99.1898 40.02C99.4164 40.4133 99.5298 40.87 99.5298 41.39C99.5298 41.9033 99.4164 42.36 99.1898 42.76C98.9631 43.16 98.6531 43.4733 98.2598 43.7C97.8664 43.9267 97.4198 44.04 96.9198 44.04ZM96.9198 43.59C97.3198 43.59 97.6798 43.5 97.9998 43.32C98.3198 43.1333 98.5698 42.8733 98.7498 42.54C98.9298 42.2067 99.0198 41.8233 99.0198 41.39C99.0198 40.95 98.9298 40.5667 98.7498 40.24C98.5698 39.9067 98.3198 39.65 97.9998 39.47C97.6798 39.2833 97.3198 39.19 96.9198 39.19C96.5198 39.19 96.1598 39.2833 95.8398 39.47C95.5264 39.65 95.2764 39.9067 95.0898 40.24C94.9098 40.5667 94.8198 40.95 94.8198 41.39C94.8198 41.8233 94.9098 42.2067 95.0898 42.54C95.2764 42.8733 95.5264 43.1333 95.8398 43.32C96.1598 43.5 96.5198 43.59 96.9198 43.59ZM103.788 44.04C103.328 44.04 102.911 43.9333 102.538 43.72C102.171 43.5067 101.878 43.2033 101.658 42.81C101.445 42.41 101.338 41.9367 101.338 41.39C101.338 40.8433 101.445 40.3733 101.658 39.98C101.878 39.58 102.171 39.2733 102.538 39.06C102.911 38.8467 103.328 38.74 103.788 38.74C104.281 38.74 104.721 38.8533 105.108 39.08C105.501 39.3 105.808 39.61 106.028 40.01C106.255 40.41 106.368 40.87 106.368 41.39C106.368 41.91 106.255 42.37 106.028 42.77C105.808 43.17 105.501 43.4833 105.108 43.71C104.721 43.93 104.281 44.04 103.788 44.04ZM101.168 45.94V38.78H101.648V40.49L101.568 41.4L101.668 42.31V45.94H101.168ZM103.758 43.59C104.158 43.59 104.518 43.5 104.838 43.32C105.158 43.1333 105.408 42.8733 105.588 42.54C105.775 42.2067 105.868 41.8233 105.868 41.39C105.868 40.95 105.775 40.5667 105.588 40.24C105.408 39.9067 105.158 39.65 104.838 39.47C104.518 39.2833 104.158 39.19 103.758 39.19C103.358 39.19 102.998 39.2833 102.678 39.47C102.365 39.65 102.115 39.9067 101.928 40.24C101.748 40.5667 101.658 40.95 101.658 41.39C101.658 41.8233 101.748 42.2067 101.928 42.54C102.115 42.8733 102.365 43.1333 102.678 43.32C102.998 43.5 103.358 43.59 103.758 43.59ZM113.662 44.05C113.142 44.05 112.659 43.9633 112.212 43.79C111.772 43.61 111.389 43.36 111.062 43.04C110.736 42.72 110.482 42.3467 110.302 41.92C110.122 41.4867 110.032 41.0133 110.032 40.5C110.032 39.9867 110.122 39.5167 110.302 39.09C110.482 38.6567 110.736 38.28 111.062 37.96C111.396 37.64 111.782 37.3933 112.222 37.22C112.662 37.04 113.142 36.95 113.662 36.95C114.156 36.95 114.616 37.03 115.042 37.19C115.476 37.35 115.846 37.5933 116.152 37.92L115.832 38.25C115.532 37.9567 115.199 37.7467 114.832 37.62C114.472 37.4867 114.089 37.42 113.682 37.42C113.236 37.42 112.819 37.4967 112.432 37.65C112.052 37.8033 111.719 38.02 111.432 38.3C111.152 38.58 110.932 38.9067 110.772 39.28C110.619 39.6533 110.542 40.06 110.542 40.5C110.542 40.94 110.619 41.3467 110.772 41.72C110.932 42.0933 111.152 42.42 111.432 42.7C111.719 42.98 112.052 43.1967 112.432 43.35C112.819 43.5033 113.236 43.58 113.682 43.58C114.089 43.58 114.472 43.5167 114.832 43.39C115.199 43.2567 115.532 43.04 115.832 42.74L116.152 43.07C115.846 43.3967 115.476 43.6433 115.042 43.81C114.616 43.97 114.156 44.05 113.662 44.05ZM117.861 44V37H120.371C120.957 37 121.461 37.0933 121.881 37.28C122.301 37.4667 122.624 37.7367 122.851 38.09C123.077 38.4367 123.191 38.86 123.191 39.36C123.191 39.8467 123.077 40.2667 122.851 40.62C122.624 40.9667 122.301 41.2367 121.881 41.43C121.461 41.6167 120.957 41.71 120.371 41.71H118.141L118.371 41.47V44H117.861ZM122.721 44L120.901 41.46H121.481L123.301 44H122.721ZM118.371 41.5L118.141 41.26H120.371C121.124 41.26 121.694 41.0933 122.081 40.76C122.474 40.4267 122.671 39.96 122.671 39.36C122.671 38.7533 122.474 38.2867 122.081 37.96C121.694 37.6267 121.124 37.46 120.371 37.46H118.141L118.371 37.21V41.5ZM125.058 44V37H125.488L128.738 42.61H128.508L131.748 37H132.168L132.178 44H131.678L131.668 37.77H131.808L128.738 43.07H128.488L125.408 37.77H125.558V44H125.058ZM1.08 56V50.78H3.28C3.85333 50.78 4.30667 50.8933 4.64 51.12C4.97333 51.3467 5.14 51.6767 5.14 52.11C5.14 52.5367 4.97667 52.86 4.65 53.08C4.33 53.3 3.91333 53.41 3.4 53.41L3.54 53.26C4.15333 53.26 4.60333 53.3733 4.89 53.6C5.17667 53.8267 5.32 54.16 5.32 54.6C5.32 55.0467 5.15667 55.3933 4.83 55.64C4.51 55.88 4.01333 56 3.34 56H1.08ZM1.57 55.59H3.33C3.81667 55.59 4.18667 55.51 4.44 55.35C4.69333 55.19 4.82 54.9333 4.82 54.58C4.82 54.22 4.70667 53.96 4.48 53.8C4.26 53.6333 3.90333 53.55 3.41 53.55H1.57V55.59ZM1.57 53.16H3.25C3.69 53.16 4.03 53.0767 4.27 52.91C4.51667 52.7433 4.64 52.4967 4.64 52.17C4.64 51.8433 4.51667 51.6 4.27 51.44C4.03 51.2733 3.69 51.19 3.25 51.19H1.57V53.16ZM9.84398 56V49H12.354C12.9407 49 13.444 49.0933 13.864 49.28C14.284 49.4667 14.6073 49.7367 14.834 50.09C15.0607 50.4367 15.174 50.86 15.174 51.36C15.174 51.8467 15.0607 52.2667 14.834 52.62C14.6073 52.9733 14.284 53.2433 13.864 53.43C13.444 53.6167 12.9407 53.71 12.354 53.71H10.124L10.354 53.47V56H9.84398ZM10.354 53.5L10.124 53.25H12.354C13.1073 53.25 13.6773 53.0867 14.064 52.76C14.4573 52.4267 14.654 51.96 14.654 51.36C14.654 50.7533 14.4573 50.2867 14.064 49.96C13.6773 49.6267 13.1073 49.46 12.354 49.46H10.124L10.354 49.21V53.5ZM18.6776 56.04C18.1776 56.04 17.7309 55.9267 17.3376 55.7C16.9509 55.4733 16.6409 55.16 16.4076 54.76C16.1809 54.36 16.0676 53.9033 16.0676 53.39C16.0676 52.87 16.1809 52.4133 16.4076 52.02C16.6409 51.62 16.9509 51.3067 17.3376 51.08C17.7309 50.8533 18.1776 50.74 18.6776 50.74C19.1776 50.74 19.6242 50.8533 20.0176 51.08C20.4109 51.3067 20.7209 51.62 20.9476 52.02C21.1742 52.4133 21.2876 52.87 21.2876 53.39C21.2876 53.9033 21.1742 54.36 20.9476 54.76C20.7209 55.16 20.4109 55.4733 20.0176 55.7C19.6242 55.9267 19.1776 56.04 18.6776 56.04ZM18.6776 55.59C19.0776 55.59 19.4376 55.5 19.7576 55.32C20.0776 55.1333 20.3276 54.8733 20.5076 54.54C20.6876 54.2067 20.7776 53.8233 20.7776 53.39C20.7776 52.95 20.6876 52.5667 20.5076 52.24C20.3276 51.9067 20.0776 51.65 19.7576 51.47C19.4376 51.2833 19.0776 51.19 18.6776 51.19C18.2776 51.19 17.9176 51.2833 17.5976 51.47C17.2842 51.65 17.0342 51.9067 16.8476 52.24C16.6676 52.5667 16.5776 52.95 16.5776 53.39C16.5776 53.8233 16.6676 54.2067 16.8476 54.54C17.0342 54.8733 17.2842 55.1333 17.5976 55.32C17.9176 55.5 18.2776 55.59 18.6776 55.59ZM25.0259 56.04C24.5193 56.04 24.0659 55.9267 23.6659 55.7C23.2726 55.4733 22.9593 55.16 22.7259 54.76C22.4993 54.36 22.3859 53.9033 22.3859 53.39C22.3859 52.87 22.4993 52.41 22.7259 52.01C22.9593 51.61 23.2726 51.3 23.6659 51.08C24.0659 50.8533 24.5193 50.74 25.0259 50.74C25.4459 50.74 25.8259 50.82 26.1659 50.98C26.5126 51.14 26.7926 51.38 27.0059 51.7L26.6359 51.97C26.4493 51.7033 26.2159 51.5067 25.9359 51.38C25.6559 51.2533 25.3526 51.19 25.0259 51.19C24.6193 51.19 24.2526 51.2833 23.9259 51.47C23.6059 51.65 23.3526 51.9067 23.1659 52.24C22.9859 52.5667 22.8959 52.95 22.8959 53.39C22.8959 53.83 22.9859 54.2167 23.1659 54.55C23.3526 54.8767 23.6059 55.1333 23.9259 55.32C24.2526 55.5 24.6193 55.59 25.0259 55.59C25.3526 55.59 25.6559 55.5267 25.9359 55.4C26.2159 55.2733 26.4493 55.0767 26.6359 54.81L27.0059 55.08C26.7926 55.4 26.5126 55.64 26.1659 55.8C25.8259 55.96 25.4459 56.04 25.0259 56.04ZM30.4445 56.04C29.9378 56.04 29.4845 55.9267 29.0845 55.7C28.6911 55.4733 28.3778 55.16 28.1445 54.76C27.9178 54.36 27.8045 53.9033 27.8045 53.39C27.8045 52.87 27.9178 52.41 28.1445 52.01C28.3778 51.61 28.6911 51.3 29.0845 51.08C29.4845 50.8533 29.9378 50.74 30.4445 50.74C30.8645 50.74 31.2445 50.82 31.5845 50.98C31.9311 51.14 32.2111 51.38 32.4245 51.7L32.0545 51.97C31.8678 51.7033 31.6345 51.5067 31.3545 51.38C31.0745 51.2533 30.7711 51.19 30.4445 51.19C30.0378 51.19 29.6711 51.2833 29.3445 51.47C29.0245 51.65 28.7711 51.9067 28.5845 52.24C28.4045 52.5667 28.3145 52.95 28.3145 53.39C28.3145 53.83 28.4045 54.2167 28.5845 54.55C28.7711 54.8767 29.0245 55.1333 29.3445 55.32C29.6711 55.5 30.0378 55.59 30.4445 55.59C30.7711 55.59 31.0745 55.5267 31.3545 55.4C31.6345 55.2733 31.8678 55.0767 32.0545 54.81L32.4245 55.08C32.2111 55.4 31.9311 55.64 31.5845 55.8C31.2445 55.96 30.8645 56.04 30.4445 56.04ZM33.9413 56V50.78H34.4413V55.23L38.1613 50.78H38.6013V56H38.1013V51.55L34.3813 56H33.9413ZM40.7577 56V50.78H41.2577V55.23L44.9777 50.78H45.4177V56H44.9177V51.55L41.1977 56H40.7577ZM50.1425 56V50.78H50.6425V55.23L54.3625 50.78H54.8025V56H54.3025V51.55L50.5825 56H50.1425ZM61.6873 56.04C61.1606 56.04 60.6939 55.9267 60.2873 55.7C59.8873 55.4733 59.5706 55.16 59.3373 54.76C59.1106 54.36 58.9973 53.9033 58.9973 53.39C58.9973 52.87 59.1039 52.4133 59.3173 52.02C59.5373 51.62 59.8373 51.3067 60.2173 51.08C60.5973 50.8533 61.0239 50.74 61.4973 50.74C61.9706 50.74 62.3939 50.85 62.7673 51.07C63.1473 51.29 63.4439 51.6 63.6573 52C63.8773 52.3933 63.9873 52.85 63.9873 53.37C63.9873 53.39 63.9839 53.4133 63.9773 53.44C63.9773 53.46 63.9773 53.4833 63.9773 53.51H59.3673V53.12H63.7073L63.5073 53.31C63.5139 52.9033 63.4273 52.54 63.2473 52.22C63.0739 51.8933 62.8373 51.64 62.5373 51.46C62.2373 51.2733 61.8906 51.18 61.4973 51.18C61.1106 51.18 60.7639 51.2733 60.4573 51.46C60.1573 51.64 59.9206 51.8933 59.7473 52.22C59.5739 52.54 59.4873 52.9067 59.4873 53.32V53.41C59.4873 53.8367 59.5806 54.2167 59.7673 54.55C59.9606 54.8767 60.2239 55.1333 60.5573 55.32C60.8906 55.5 61.2706 55.59 61.6973 55.59C62.0306 55.59 62.3406 55.53 62.6273 55.41C62.9206 55.29 63.1673 55.1067 63.3673 54.86L63.6573 55.19C63.4306 55.47 63.1439 55.6833 62.7973 55.83C62.4573 55.97 62.0873 56.04 61.6873 56.04ZM69.011 55.56L68.891 55.71V50.78H69.391V55.71L69.241 55.56H72.281L72.141 55.71V50.78H72.641V56H65.621V50.78H66.121V55.71L65.981 55.56H69.011ZM72.981 57.18V55.85L73.121 56H72.101V55.56H73.461V57.18H72.981ZM76.9607 56.04C76.434 56.04 75.9674 55.9267 75.5607 55.7C75.1607 55.4733 74.844 55.16 74.6107 54.76C74.384 54.36 74.2707 53.9033 74.2707 53.39C74.2707 52.87 74.3774 52.4133 74.5907 52.02C74.8107 51.62 75.1107 51.3067 75.4907 51.08C75.8707 50.8533 76.2974 50.74 76.7707 50.74C77.244 50.74 77.6674 50.85 78.0407 51.07C78.4207 51.29 78.7174 51.6 78.9307 52C79.1507 52.3933 79.2607 52.85 79.2607 53.37C79.2607 53.39 79.2574 53.4133 79.2507 53.44C79.2507 53.46 79.2507 53.4833 79.2507 53.51H74.6407V53.12H78.9807L78.7807 53.31C78.7874 52.9033 78.7007 52.54 78.5207 52.22C78.3474 51.8933 78.1107 51.64 77.8107 51.46C77.5107 51.2733 77.164 51.18 76.7707 51.18C76.384 51.18 76.0374 51.2733 75.7307 51.46C75.4307 51.64 75.194 51.8933 75.0207 52.22C74.8474 52.54 74.7607 52.9067 74.7607 53.32V53.41C74.7607 53.8367 74.854 54.2167 75.0407 54.55C75.234 54.8767 75.4974 55.1333 75.8307 55.32C76.164 55.5 76.544 55.59 76.9707 55.59C77.304 55.59 77.614 55.53 77.9007 55.41C78.194 55.29 78.4407 55.1067 78.6407 54.86L78.9307 55.19C78.704 55.47 78.4174 55.6833 78.0707 55.83C77.7307 55.97 77.3607 56.04 76.9607 56.04ZM77.6307 49.66C77.5374 49.66 77.454 49.6267 77.3807 49.56C77.3074 49.4867 77.2707 49.4 77.2707 49.3C77.2707 49.1933 77.3074 49.1067 77.3807 49.04C77.454 48.9733 77.5374 48.94 77.6307 48.94C77.7307 48.94 77.814 48.9733 77.8807 49.04C77.954 49.1067 77.9907 49.1933 77.9907 49.3C77.9907 49.4 77.954 49.4867 77.8807 49.56C77.814 49.6267 77.7307 49.66 77.6307 49.66ZM75.9107 49.66C75.8107 49.66 75.724 49.6267 75.6507 49.56C75.584 49.4867 75.5507 49.4 75.5507 49.3C75.5507 49.1933 75.584 49.1067 75.6507 49.04C75.724 48.9733 75.8107 48.94 75.9107 48.94C76.0107 48.94 76.094 48.9733 76.1607 49.04C76.234 49.1067 76.2707 49.1933 76.2707 49.3C76.2707 49.4 76.234 49.4867 76.1607 49.56C76.094 49.6267 76.0107 49.66 75.9107 49.66ZM85.5328 56.05C84.9795 56.05 84.5061 55.97 84.1128 55.81C83.7195 55.65 83.4161 55.4233 83.2028 55.13C82.9961 54.8367 82.8928 54.4867 82.8928 54.08C82.8928 53.6867 82.9961 53.35 83.2028 53.07C83.4095 52.79 83.7095 52.5767 84.1028 52.43C84.4961 52.2767 84.9728 52.2 85.5328 52.2C86.0928 52.2 86.5695 52.2767 86.9628 52.43C87.3628 52.5767 87.6661 52.79 87.8728 53.07C88.0861 53.35 88.1928 53.6867 88.1928 54.08C88.1928 54.4867 88.0861 54.8367 87.8728 55.13C87.6595 55.4233 87.3528 55.65 86.9528 55.81C86.5595 55.97 86.0861 56.05 85.5328 56.05ZM85.5328 55.61C86.2061 55.61 86.7328 55.4733 87.1128 55.2C87.4928 54.9267 87.6828 54.5533 87.6828 54.08C87.6828 53.6133 87.4928 53.2433 87.1128 52.97C86.7328 52.6967 86.2061 52.56 85.5328 52.56C84.8595 52.56 84.3361 52.6967 83.9628 52.97C83.5895 53.2433 83.4028 53.6133 83.4028 54.08C83.4028 54.5533 83.5895 54.9267 83.9628 55.2C84.3361 55.4733 84.8595 55.61 85.5328 55.61ZM85.5328 52.49C85.0261 52.49 84.5928 52.4233 84.2328 52.29C83.8795 52.15 83.6095 51.95 83.4228 51.69C83.2361 51.43 83.1428 51.12 83.1428 50.76C83.1428 50.3867 83.2395 50.0667 83.4328 49.8C83.6328 49.5267 83.9128 49.3167 84.2728 49.17C84.6328 49.0233 85.0528 48.95 85.5328 48.95C86.0195 48.95 86.4428 49.0233 86.8028 49.17C87.1628 49.3167 87.4428 49.5267 87.6428 49.8C87.8428 50.0667 87.9428 50.3867 87.9428 50.76C87.9428 51.12 87.8461 51.43 87.6528 51.69C87.4661 51.95 87.1928 52.15 86.8328 52.29C86.4728 52.4233 86.0395 52.49 85.5328 52.49ZM85.5328 52.14C86.1328 52.14 86.5995 52.0167 86.9328 51.77C87.2661 51.5233 87.4328 51.1933 87.4328 50.78C87.4328 50.3467 87.2595 50.0067 86.9128 49.76C86.5728 49.5133 86.1128 49.39 85.5328 49.39C84.9595 49.39 84.5028 49.5133 84.1628 49.76C83.8228 50.0067 83.6528 50.3433 83.6528 50.77C83.6528 51.19 83.8161 51.5233 84.1428 51.77C84.4761 52.0167 84.9395 52.14 85.5328 52.14ZM94.4595 56.04C93.9529 56.04 93.4995 55.9267 93.0995 55.7C92.7062 55.4733 92.3929 55.16 92.1595 54.76C91.9329 54.36 91.8195 53.9033 91.8195 53.39C91.8195 52.87 91.9329 52.41 92.1595 52.01C92.3929 51.61 92.7062 51.3 93.0995 51.08C93.4995 50.8533 93.9529 50.74 94.4595 50.74C94.8795 50.74 95.2595 50.82 95.5995 50.98C95.9462 51.14 96.2262 51.38 96.4395 51.7L96.0695 51.97C95.8829 51.7033 95.6495 51.5067 95.3695 51.38C95.0895 51.2533 94.7862 51.19 94.4595 51.19C94.0529 51.19 93.6862 51.2833 93.3595 51.47C93.0395 51.65 92.7862 51.9067 92.5995 52.24C92.4195 52.5667 92.3295 52.95 92.3295 53.39C92.3295 53.83 92.4195 54.2167 92.5995 54.55C92.7862 54.8767 93.0395 55.1333 93.3595 55.32C93.6862 55.5 94.0529 55.59 94.4595 55.59C94.7862 55.59 95.0895 55.5267 95.3695 55.4C95.6495 55.2733 95.8829 55.0767 96.0695 54.81L96.4395 55.08C96.2262 55.4 95.9462 55.64 95.5995 55.8C95.2595 55.96 94.8795 56.04 94.4595 56.04ZM98.7488 56V51.08L98.8888 51.23H96.7087V50.78H101.289V51.23H99.1088L99.2488 51.08V56H98.7488ZM104.989 56.04C104.529 56.04 104.113 55.9333 103.739 55.72C103.373 55.5067 103.079 55.2033 102.859 54.81C102.646 54.41 102.539 53.9367 102.539 53.39C102.539 52.8433 102.646 52.3733 102.859 51.98C103.079 51.58 103.373 51.2733 103.739 51.06C104.113 50.8467 104.529 50.74 104.989 50.74C105.483 50.74 105.923 50.8533 106.309 51.08C106.703 51.3 107.009 51.61 107.229 52.01C107.456 52.41 107.569 52.87 107.569 53.39C107.569 53.91 107.456 54.37 107.229 54.77C107.009 55.17 106.703 55.4833 106.309 55.71C105.923 55.93 105.483 56.04 104.989 56.04ZM102.369 57.94V50.78H102.849V52.49L102.769 53.4L102.869 54.31V57.94H102.369ZM104.959 55.59C105.359 55.59 105.719 55.5 106.039 55.32C106.359 55.1333 106.609 54.8733 106.789 54.54C106.976 54.2067 107.069 53.8233 107.069 53.39C107.069 52.95 106.976 52.5667 106.789 52.24C106.609 51.9067 106.359 51.65 106.039 51.47C105.719 51.2833 105.359 51.19 104.959 51.19C104.559 51.19 104.199 51.2833 103.879 51.47C103.566 51.65 103.316 51.9067 103.129 52.24C102.949 52.5667 102.859 52.95 102.859 53.39C102.859 53.8233 102.949 54.2067 103.129 54.54C103.316 54.8733 103.566 55.1333 103.879 55.32C104.199 55.5 104.559 55.59 104.959 55.59ZM112.436 56V54.81L112.416 54.63V52.67C112.416 52.1833 112.282 51.8133 112.016 51.56C111.756 51.3067 111.372 51.18 110.866 51.18C110.506 51.18 110.169 51.2433 109.856 51.37C109.549 51.49 109.286 51.6467 109.066 51.84L108.816 51.48C109.076 51.2467 109.389 51.0667 109.756 50.94C110.122 50.8067 110.506 50.74 110.906 50.74C111.552 50.74 112.049 50.9033 112.396 51.23C112.742 51.5567 112.916 52.0433 112.916 52.69V56H112.436ZM110.556 56.04C110.169 56.04 109.832 55.98 109.546 55.86C109.266 55.7333 109.049 55.5567 108.896 55.33C108.749 55.1033 108.676 54.8433 108.676 54.55C108.676 54.2833 108.736 54.0433 108.856 53.83C108.982 53.61 109.189 53.4333 109.476 53.3C109.762 53.16 110.146 53.09 110.626 53.09H112.546V53.48H110.636C110.096 53.48 109.716 53.58 109.496 53.78C109.282 53.98 109.176 54.23 109.176 54.53C109.176 54.8633 109.302 55.13 109.556 55.33C109.809 55.53 110.166 55.63 110.626 55.63C111.066 55.63 111.436 55.53 111.736 55.33C112.042 55.13 112.269 54.84 112.416 54.46L112.556 54.8C112.416 55.18 112.176 55.4833 111.836 55.71C111.502 55.93 111.076 56.04 110.556 56.04ZM114.947 56V50.78H115.447V53.16H118.987V50.78H119.487V56H118.987V53.6H115.447V56H114.947ZM124.906 56V54.81L124.886 54.63V52.67C124.886 52.1833 124.753 51.8133 124.486 51.56C124.226 51.3067 123.843 51.18 123.336 51.18C122.976 51.18 122.64 51.2433 122.326 51.37C122.02 51.49 121.756 51.6467 121.536 51.84L121.286 51.48C121.546 51.2467 121.86 51.0667 122.226 50.94C122.593 50.8067 122.976 50.74 123.376 50.74C124.023 50.74 124.52 50.9033 124.866 51.23C125.213 51.5567 125.386 52.0433 125.386 52.69V56H124.906ZM123.026 56.04C122.64 56.04 122.303 55.98 122.016 55.86C121.736 55.7333 121.52 55.5567 121.366 55.33C121.22 55.1033 121.146 54.8433 121.146 54.55C121.146 54.2833 121.206 54.0433 121.326 53.83C121.453 53.61 121.66 53.4333 121.946 53.3C122.233 53.16 122.616 53.09 123.096 53.09H125.016V53.48H123.106C122.566 53.48 122.186 53.58 121.966 53.78C121.753 53.98 121.646 54.23 121.646 54.53C121.646 54.8633 121.773 55.13 122.026 55.33C122.28 55.53 122.636 55.63 123.096 55.63C123.536 55.63 123.906 55.53 124.206 55.33C124.513 55.13 124.74 54.84 124.886 54.46L125.026 54.8C124.886 55.18 124.646 55.4833 124.306 55.71C123.973 55.93 123.546 56.04 123.026 56.04ZM126.538 56L128.708 53.18L128.698 53.42L126.648 50.78H127.218L129.008 53.09H128.798L130.578 50.78H131.138L129.068 53.45L129.078 53.18L131.278 56H130.688L128.798 53.54L128.988 53.56L127.108 56H126.538Z"/><defs><clipPath id="clip0_10707_2"><rect width="97" height="15" fill="#fff" transform="translate(43 5)"/></clipPath><clipPath id="clip1_10707_2"><rect width="35" height="24" fill="#fff"/></clipPath></defs></svg>